<?xml version="1.0" encoding="utf-8"?>
<!-- Generator: Adobe Illustrator 27.1.1, SVG Export Plug-In . SVG Version: 6.00 Build 0)  -->
<svg version="1.1" id="Layer_1" xmlns="http://www.w3.org/2000/svg" xmlns:xlink="http://www.w3.org/1999/xlink" x="0px" y="0px"
	 viewBox="0 0 512 512" style="enable-background:new 0 0 512 512;" xml:space="preserve">
<style type="text/css">
	.st0{fill:#3A77FF;}
	.st1{display:none;}
	.st2{display:inline;}
</style>
<g>
	<g id="g827" transform="matrix(0.33000001,0,0,0.33000001,643.69971,361.29999)">
		<g id="g825" transform="translate(793.30103,542.63702)">
			<path id="path823" class="st0" d="M-2376.43-1218.99c-202.95,0-367.48,164.53-367.48,367.48
				c0,202.96,164.53,367.48,367.48,367.48c202.95,0,367.48-164.52,367.48-367.48C-2008.95-1054.46-2173.47-1218.99-2376.43-1218.99z
				 M-2376.43-741.72c-61.58,0-111.49-49.92-111.49-111.49s49.92-108.35,111.49-108.35s111.49,46.78,111.49,108.35
				S-2314.85-741.72-2376.43-741.72z"/>
		</g>
	</g>
	<g id="g833" transform="matrix(0.33000001,0,0,0.33000001,642.70032,360.80566)">
		<g id="g831" transform="translate(1016.09,540)">
			<path id="path829" class="st0" d="M-1947.2-411.73h-211.64v-891.74h211.64V-411.73z"/>
		</g>
	</g>
	<g id="g839" transform="matrix(0.33000946,0,0,0.33000946,642.68884,361.29437)">
		<g id="g837" transform="translate(1185.13,540.04999)">
			<path id="path835" class="st0" d="M-2027.27-632.02h142.51l80.55-80.55l80.55,80.55h142.51v-140.95l-81.33-81.33l81.33-81.33
				v-142.93h-140.54l-82.53,82.52l-82.53-82.52h-140.54v142.93l81.33,81.33l-81.33,81.33V-632.02z"/>
		</g>
	</g>
</g>
<g id="g845" transform="matrix(0.33022031,0,0,0.33022031,643.5249,361.18103)" class="st1">
	<g id="g843" transform="translate(793.30103,542.63702)" class="st2">
		<path id="path841" class="st0" d="M-2381.05-1212.15c-199.39,0-361.03,161.64-361.03,361.03c0,199.4,161.64,361.03,361.03,361.03
			c199.39,0,361.03-161.64,361.03-361.03C-2020.01-1050.51-2181.65-1212.15-2381.05-1212.15z M-2381.05-745.92
			c-58.97,0-106.78-47.81-106.78-106.78c0-58.97,47.81-103.86,106.78-103.86c58.97,0,106.78,44.88,106.78,103.86
			C-2274.27-793.73-2322.07-745.92-2381.05-745.92z"/>
	</g>
</g>
<g id="g851" transform="matrix(0.33000001,0,0,0.33000001,642.70032,360.80566)" class="st1">
	<g id="g849" transform="translate(1016.09,540)" class="st2">
		<path id="path847" class="st0" d="M-1966.69-409.16h-204.14v-896.86h204.14V-409.16z"/>
	</g>
</g>
<g id="g857" transform="matrix(0.37064692,0,0,0.37064692,594.5282,339.34814)" class="st1">
	<g id="g855" transform="translate(1185.13,540.04999)" class="st2">
		<path id="path853" class="st0" d="M-1846.09-542.23h114.97l104.18-104.18l104.18,104.18h114.97v-113.43l-104.95-104.95
			l104.95-104.95v-115.38h-113.02l-106.13,106.12l-106.13-106.12h-113.02v115.38l104.95,104.95l-104.95,104.95V-542.23z"/>
	</g>
</g>
</svg>